HIERARCHY
ROOT joint_Root
{
	OFFSET 0.0 0.0 0.0
	CHANNELS 6 Xposition Yposition Zposition Zrotation Xrotation Yrotation 
	JOINT Hips
	{
		OFFSET 4.5925 91.4895 -427.239
		CHANNELS 6 Xposition Yposition Zposition Zrotation Xrotation Yrotation 
		JOINT Spine
		{
			OFFSET 15.7357 0.0 0.0
			CHANNELS 6 Xposition Yposition Zposition Zrotation Xrotation Yrotation 
			JOINT Chest
			{
				OFFSET 8.98455 -0.406207 0.0
				CHANNELS 6 Xposition Yposition Zposition Zrotation Xrotation Yrotation 
				JOINT Neck
				{
					OFFSET 16.3773 0.0 0.0
					CHANNELS 6 Xposition Yposition Zposition Zrotation Xrotation Yrotation 
					JOINT Head
					{
						OFFSET 6.45672 0.0 0.0
						CHANNELS 6 Xposition Yposition Zposition Zrotation Xrotation Yrotation 
						End Site
						{
							OFFSET 0.0 0.0 0.0
						}
					}
				}
				JOINT Shoulder_L
				{
					OFFSET 12.9942 -0.242716 4.98039
					CHANNELS 6 Xposition Yposition Zposition Zrotation Xrotation Yrotation 
					JOINT UpperArm_L
					{
						OFFSET 5.34809 0.0 0.0
						CHANNELS 6 Xposition Yposition Zposition Zrotation Xrotation Yrotation 
						JOINT LowerArm_L
						{
							OFFSET 24.3286 1.87007e-05 0.0
							CHANNELS 6 Xposition Yposition Zposition Zrotation Xrotation Yrotation 
							JOINT Hand_L
							{
								OFFSET 22.2916 0.0 0.0
								CHANNELS 6 Xposition Yposition Zposition Zrotation Xrotation Yrotation 
								End Site
								{
									OFFSET 0.0 0.0 0.0
								}
							}
						}
					}
				}
				JOINT Shoulder_R
				{
					OFFSET 12.9945 -0.242716 -4.98039
					CHANNELS 6 Xposition Yposition Zposition Zrotation Xrotation Yrotation 
					JOINT UpperArm_R
					{
						OFFSET -5.34813 0.0 0.0
						CHANNELS 6 Xposition Yposition Zposition Zrotation Xrotation Yrotation 
						JOINT LowerArm_R
						{
							OFFSET -24.3289 0.000322201 0.0
							CHANNELS 6 Xposition Yposition Zposition Zrotation Xrotation Yrotation 
							JOINT Hand_R
							{
								OFFSET -22.2915 -0.000108084 0.0
								CHANNELS 6 Xposition Yposition Zposition Zrotation Xrotation Yrotation 
								End Site
								{
									OFFSET 0.0 0.0 0.0
								}
							}
						}
					}
				}
			}
		}
		JOINT UpperLeg_L
		{
			OFFSET -2.19248 -6.46944 0.0
			CHANNELS 6 Xposition Yposition Zposition Zrotation Xrotation Yrotation 
			JOINT LowerLeg_L
			{
				OFFSET 39.0811 0.0 -1.23785e-05
				CHANNELS 6 Xposition Yposition Zposition Zrotation Xrotation Yrotation 
				JOINT Foot_L
				{
					OFFSET 40.9854 0.0 -1.26872e-05
					CHANNELS 6 Xposition Yposition Zposition Zrotation Xrotation Yrotation 
					JOINT Toes_L
					{
						OFFSET 11.7543 0.0 0.0
						CHANNELS 6 Xposition Yposition Zposition Zrotation Xrotation Yrotation 
						End Site
						{
							OFFSET 0.0 0.0 0.0
						}
					}
				}
			}
		}
		JOINT UpperLeg_R
		{
			OFFSET -2.19251 6.46944 0.0
			CHANNELS 6 Xposition Yposition Zposition Zrotation Xrotation Yrotation 
			JOINT LowerLeg_R
			{
				OFFSET -39.0811 -0.00228153 -0.0401928
				CHANNELS 6 Xposition Yposition Zposition Zrotation Xrotation Yrotation 
				JOINT Foot_R
				{
					OFFSET -40.9854 0.0 0.0
					CHANNELS 6 Xposition Yposition Zposition Zrotation Xrotation Yrotation 
					JOINT Toes_R
					{
						OFFSET -11.7543 0.0 0.0
						CHANNELS 6 Xposition Yposition Zposition Zrotation Xrotation Yrotation 
						End Site
						{
							OFFSET 0.0 0.0 0.0
						}
					}
				}
			}
		}
	}
}
MOTION
Frames:	6
Frame Time:	0.0333333
0.000000 0.000000 0.000000 0.000000 0.000000 -0.000000 129.993000 90.276100 -20.265000 91.464900 -0.368835 1.045150 15.735700 0.000005 -0.000001 88.742200 80.439900 -88.080400 8.984550 -0.406207 -0.000000 11.352300 -0.395729 1.362390 16.377300 -0.000001 -0.000001 2.664360 -3.615470 1.514910 6.456720 -0.000001 -0.000000 -1.923150 -3.300270 -0.492053 12.994200 -0.242716 4.980390 -91.085000 3.852240 -74.257000 5.348090 -0.000007 -0.000001 -70.160900 26.853800 -10.932600 24.328600 0.000019 0.000005 12.498300 23.220100 -29.345600 22.291600 -0.000001 0.000005 11.185800 5.232990 1.878010 12.994500 -0.242716 -4.980390 88.571200 8.732340 -80.670100 -5.348130 -0.000001 -0.000004 -58.081200 28.335600 -18.620200 -24.328900 0.000322 -0.000009 1.918230 3.254620 -30.551600 -22.291500 -0.000108 -0.000004 17.422600 5.410540 -3.283110 -2.192480 -6.469440 -0.000000 -179.073000 -10.526400 -22.693900 39.081100 -0.000007 -0.000012 0.055285 -0.040093 54.047700 40.985400 -0.000006 -0.000013 1.240680 -0.579549 -66.158600 11.754300 -0.000000 0.000003 -0.002139 -0.030447 -17.814800 -2.192510 6.469440 -0.000001 -179.683000 20.728200 165.363000 -39.081100 -0.002282 -0.040193 -0.039791 0.060160 35.606600 -40.985400 0.000008 0.000006 9.630140 4.977040 -71.758400 -11.754300 -0.000006 -0.000006 -0.002522 -0.035069 -17.999200
0.000000 0.000000 0.000000 0.000000 0.000000 -0.000000 130.022000 90.572200 -18.943600 91.514800 -0.939262 0.693279 15.735700 0.000005 -0.000001 90.038300 80.517900 -89.528900 8.984550 -0.406207 -0.000000 11.198300 0.027820 1.015620 16.377300 -0.000001 -0.000001 2.495990 -3.688390 1.556770 6.456720 -0.000001 -0.000000 -2.122640 -3.401880 -0.487260 12.994200 -0.242716 4.980390 -91.114300 3.945010 -74.214200 5.348090 -0.000007 -0.000001 -71.393000 25.842800 -8.877850 24.328600 0.000019 0.000005 11.692000 24.093700 -26.882000 22.291600 -0.000001 0.000005 10.739100 5.225410 2.073880 12.994500 -0.242716 -4.980390 88.641200 8.428100 -80.807200 -5.348130 -0.000001 -0.000004 -57.032900 27.664100 -20.869700 -24.328900 0.000322 -0.000009 1.703680 2.719230 -32.102100 -22.291500 -0.000108 -0.000004 17.757700 5.415010 -3.431860 -2.192480 -6.469440 -0.000000 -179.765000 -10.780200 -23.274700 39.081100 -0.000007 -0.000012 0.041163 -0.039238 46.369400 40.985400 -0.000006 -0.000013 0.143894 0.839010 -65.329000 11.754300 -0.000000 0.000003 -0.001811 -0.026330 -17.647400 -2.192510 6.469440 -0.000001 179.972000 21.087400 166.836000 -39.081100 -0.002282 -0.040193 -0.029134 0.048190 33.937100 -40.985400 0.000008 0.000006 9.519050 5.891840 -71.935600 -11.754300 -0.000006 -0.000006 -0.002493 -0.034732 -17.985500
0.000000 0.000000 0.000000 0.000000 0.000000 -0.000000 130.093000 90.770300 -17.627800 91.366100 -1.519270 0.280976 15.735700 0.000005 -0.000001 91.316200 80.584000 -90.916500 8.984550 -0.406207 -0.000000 11.059800 0.440775 0.756316 16.377300 -0.000001 -0.000001 2.279080 -3.679930 1.597920 6.456720 -0.000001 -0.000000 -2.291150 -3.524870 -0.482889 12.994200 -0.242716 4.980390 -91.143900 4.028240 -74.133300 5.348090 -0.000007 -0.000001 -72.074100 25.244100 -7.122410 24.328600 0.000019 0.000005 11.298200 25.062100 -25.250500 22.291600 -0.000001 0.000005 10.414900 5.215670 2.323330 12.994500 -0.242716 -4.980390 88.706100 8.176810 -80.976400 -5.348130 -0.000001 -0.000004 -56.157500 26.783600 -22.836000 -24.328900 0.000322 -0.000009 1.865610 2.834660 -33.386100 -22.291500 -0.000108 -0.000004 17.837600 5.413990 -3.397780 -2.192480 -6.469440 -0.000000 179.625000 -11.226600 -23.496500 39.081100 -0.000007 -0.000012 0.029607 -0.038057 37.879800 40.985400 -0.000006 -0.000013 -0.507895 2.184550 -63.855100 11.754300 -0.000000 0.000003 -0.001526 -0.022617 -17.496400 -2.192510 6.469440 -0.000001 179.803000 21.273800 168.111000 -39.081100 -0.002282 -0.040193 -0.029541 0.051523 32.511500 -40.985400 0.000008 0.000006 9.564080 6.748810 -72.223800 -11.754300 -0.000006 -0.000006 -0.002383 -0.033417 -17.932000
0.000000 0.000000 0.000000 0.000000 0.000000 -0.000000 130.210000 90.844900 -16.151900 91.094400 -2.167480 0.002273 15.735700 0.000005 -0.000001 92.780400 80.571500 -92.465400 8.984550 -0.406207 -0.000000 11.067400 0.916855 0.540811 16.377300 -0.000001 -0.000001 2.092990 -3.666050 1.625710 6.456720 -0.000001 -0.000000 -2.498720 -3.609630 -0.419356 12.994200 -0.242716 4.980390 -91.167400 4.099160 -74.088300 5.348090 -0.000007 -0.000001 -72.400900 24.907100 -5.800450 24.328600 0.000019 0.000005 11.058600 25.895300 -24.109100 22.291600 -0.000001 0.000005 10.354000 5.206470 2.556450 12.994500 -0.242716 -4.980390 88.739700 8.041930 -81.063100 -5.348130 -0.000001 -0.000004 -55.171800 26.049900 -24.624800 -24.328900 0.000322 -0.000009 1.951830 2.864500 -34.306600 -22.291500 -0.000108 -0.000004 18.138300 5.414760 -3.423310 -2.192480 -6.469440 -0.000000 179.172000 -11.614900 -23.342000 39.081100 -0.000007 -0.000012 0.023110 -0.039963 30.039700 40.985400 -0.000006 -0.000013 -1.105650 3.999550 -61.935900 11.754300 -0.000000 0.000003 -0.001071 -0.016410 -17.244100 -2.192510 6.469440 -0.000001 179.663000 21.200000 169.483000 -39.081100 -0.002282 -0.040193 -0.013730 0.027857 31.438100 -40.985400 0.000008 0.000006 9.688400 7.264360 -72.792100 -11.754300 -0.000006 -0.000006 -0.002488 -0.034665 -17.982800
0.000000 0.000000 0.000000 0.000000 0.000000 -0.000000 130.387000 90.765400 -14.452200 90.770100 -2.789430 -0.070839 15.735700 0.000005 -0.000001 94.043100 80.515100 -93.824200 8.984550 -0.406207 -0.000000 11.156300 1.333720 0.307213 16.377300 -0.000001 -0.000001 2.095190 -3.679290 1.678740 6.456720 -0.000001 -0.000000 -2.644970 -3.695150 -0.280680 12.994200 -0.242716 4.980390 -91.142900 4.001600 -74.045500 5.348090 -0.000007 -0.000001 -72.697300 24.445600 -4.909540 24.328600 0.000019 0.000005 10.799800 26.611100 -23.067100 22.291600 -0.000001 0.000005 10.353500 5.199970 2.719920 12.994500 -0.242716 -4.980390 88.785800 7.839490 -81.167100 -5.348130 -0.000001 -0.000004 -54.424200 25.552200 -25.919000 -24.328900 0.000322 -0.000009 1.878690 2.687880 -34.987000 -22.291500 -0.000108 -0.000004 18.497800 5.415810 -3.458620 -2.192480 -6.469440 -0.000000 178.146000 -12.164900 -24.619600 39.081100 -0.000007 -0.000012 0.126601 -0.249845 26.872100 40.985400 -0.000006 -0.000013 1.855190 4.836970 -60.627300 11.754300 -0.000000 0.000003 -0.001474 -0.021937 -17.468800 -2.192510 6.469440 -0.000001 179.388000 20.837300 170.950000 -39.081100 -0.002282 -0.040193 -0.000057 0.005595 30.964800 -40.985400 0.000008 0.000006 9.801350 7.507360 -73.683400 -11.754300 -0.000006 -0.000006 -0.002151 -0.030595 -17.817200
0.000000 0.000000 0.000000 0.000000 0.000000 -0.000000 130.667000 90.538300 -12.488100 90.740600 -3.315420 -0.096888 15.735700 0.000005 -0.000001 94.589500 80.520800 -94.604600 8.984550 -0.406207 -0.000000 11.134500 1.504990 -0.176706 16.377300 -0.000001 -0.000001 2.297200 -3.641550 1.769320 6.456720 -0.000001 -0.000000 -2.557320 -3.724500 -0.067156 12.994200 -0.242716 4.980390 -91.112100 3.877750 -73.984400 5.348090 -0.000007 -0.000001 -72.817500 23.821900 -4.340250 24.328600 0.000019 0.000005 10.482000 27.053000 -22.135800 22.291600 -0.000001 0.000005 10.298700 5.193150 2.890360 12.994500 -0.242716 -4.980390 88.816100 7.680770 -81.210400 -5.348130 -0.000001 -0.000004 -53.962700 25.333200 -26.739100 -24.328900 0.000322 -0.000009 1.853550 2.625460 -35.256700 -22.291500 -0.000108 -0.000004 18.620100 5.418910 -3.562410 -2.192480 -6.469440 -0.000000 177.607000 -12.277400 -25.551100 39.081100 -0.000007 -0.000012 0.088453 -0.177127 26.536300 40.985400 -0.000006 -0.000013 2.357430 4.800000 -58.967100 11.754300 -0.000000 0.000003 -0.001358 -0.020371 -17.405100 -2.192510 6.469440 -0.000001 178.653000 20.307800 172.147000 -39.081100 -0.002282 -0.040193 0.000687 0.004280 31.393700 -40.985400 0.000008 0.000006 9.348310 7.466550 -74.677300 -11.754300 -0.000006 -0.000006 -0.002237 -0.031646 -17.859900
